<svg width="909" height="909" viewBox="0 0 909 909" fill="none" xmlns="http://www.w3.org/2000/svg">
<path d="M117.84 787.169V688.949L101.23 707.589L101.16 683.789L122.57 654.319H134.11V787.169H117.84Z" fill="white"/>
<path d="M310.17 787.169V771.719C310.17 764.379 310.33 758.239 310.64 753.279C310.95 748.319 311.8 744.239 313.19 741.019C314.58 737.799 316.75 735.029 319.72 732.719C322.68 730.399 326.88 728.089 332.3 725.769L366.55 710.899C371.09 708.839 374.5 706.909 376.77 705.109C379.04 703.309 380.58 701.119 381.4 698.549C382.22 695.979 382.63 692.559 382.63 688.319C382.63 682.139 381.71 677.539 379.89 674.509C378.06 671.489 374.84 669.489 370.24 668.519C365.63 667.549 359.11 667.069 350.66 667.069C347.63 667.069 343.94 667.199 339.59 667.459C335.24 667.719 330.73 668.009 326.06 668.329C321.39 668.649 316.98 669.069 312.82 669.579V656.059C316.48 655.419 320.73 654.869 325.59 654.419C330.44 653.969 335.49 653.579 340.73 653.259C345.96 652.939 350.91 652.779 355.58 652.779C361.63 652.779 367.25 653.099 372.42 653.739C377.59 654.389 382.19 655.799 386.23 657.989C390.27 660.179 393.39 663.559 395.6 668.129C397.81 672.699 398.91 678.849 398.91 686.569C398.91 694.289 398.12 700.439 396.54 705.009C394.96 709.579 392.44 713.249 388.97 716.019C385.5 718.789 380.93 721.399 375.25 723.839L336.27 740.639C332.99 742.059 330.62 743.669 329.18 745.469C327.73 747.269 326.81 749.619 326.44 752.519C326.07 755.419 325.87 759.119 325.87 763.619V772.699H398.9V787.179H310.17V787.169Z" fill="white"/>
<path d="M484.32 787.169V756.079H415.64V743.339L480.88 654.319H498.85L433.8 741.789H484.51L487.92 694.479H500.6V741.789H519.9V756.079H500.6V787.169H484.33H484.32Z" fill="white"/>
<path d="M588.99 787.169V654.319H673.56V668.609H605.26V712.829H664.67V727.309H605.26V772.879H673.56V787.169H588.99Z" fill="white"/>
<path d="M693.34 787.169L741.77 720.549L694.09 654.319H713.39L751.23 706.459H752.74L790.77 654.319H809.31L761.63 719.969L809.87 787.169H790.76L752.16 733.879H750.65L711.86 787.169H693.32H693.34Z" fill="white"/>
<path d="M234.09 670.479L275.92 727.63L218.77 769.46L176.94 712.31L234.09 670.479ZM236.1 652.77C235.15 652.77 234.18 653.059 233.35 653.669L161.13 706.53C159.05 708.05 158.6 710.969 160.12 713.039L212.98 785.26C213.89 786.51 215.31 787.169 216.74 787.169C217.69 787.169 218.66 786.88 219.49 786.27L291.71 733.409C293.79 731.889 294.24 728.97 292.72 726.9L239.86 654.68C238.95 653.43 237.53 652.77 236.1 652.77Z" fill="white"/>
<path d="M549.839 704.615L536.71 714.225L546.319 727.354L559.449 717.745L549.839 704.615Z" fill="white"/>
<path d="M478.419 125.016L228.536 307.903C221.352 313.161 219.79 323.248 225.048 330.432L407.935 580.315C413.193 587.5 423.28 589.061 430.464 583.803L680.347 400.916C687.531 395.658 689.093 385.571 683.835 378.387L500.948 128.504C495.69 121.32 485.603 119.758 478.419 125.016Z" fill="#00C294"/>
<path d="M354.99 427.2C390.62 475.88 411.5 530.83 418.47 586.73C414.4 586.09 410.56 583.91 407.94 580.32L225.05 330.43C222.42 326.84 221.5 322.52 222.13 318.44C273.3 341.98 319.36 378.51 355 427.19L354.99 427.2Z" fill="#008060"/>
<path d="M500.95 128.501L683.84 378.391C686.47 381.981 687.38 386.291 686.76 390.371H686.75C635.58 366.831 589.52 330.311 553.89 281.631C518.26 232.951 497.37 177.991 490.41 122.101C494.48 122.731 498.32 124.921 500.95 128.511V128.501Z" fill="#008060"/>
<path d="M686.76 390.38C686.13 394.45 683.94 398.29 680.35 400.92L430.46 583.81C426.87 586.44 422.55 587.36 418.47 586.73C442.01 535.56 478.54 489.49 527.22 453.86C575.9 418.23 630.85 397.35 686.74 390.37C686.74 390.37 686.74 390.38 686.75 390.37L686.76 390.38Z" fill="#008060"/>
<path d="M490.4 122.09C466.86 173.26 430.33 219.33 381.66 254.96C332.98 290.59 278.03 311.48 222.13 318.45C222.76 314.37 224.95 310.54 228.54 307.91L478.43 125.02C482.02 122.39 486.33 121.47 490.41 122.1L490.4 122.09Z" fill="#008060"/>
<path d="M379.71 265.543L356.29 416.831C355.382 422.698 359.402 428.19 365.269 429.099L516.557 452.519C522.424 453.428 527.916 449.408 528.825 443.54L552.245 292.253C553.154 286.385 549.134 280.893 543.266 279.985L391.979 256.564C386.111 255.656 380.619 259.676 379.71 265.543Z" fill="#00F5BC"/>
</svg>
