<svg width="1431" height="353" viewBox="0 0 1431 353" fill="none" xmlns="http://www.w3.org/2000/svg">
<g clip-path="url(#clip0_325_588)">
<path d="M30.5575 296.988V120.533L0.700533 154.02L0.574707 111.263L39.0598 58.3193H59.8033V296.988H30.5575Z" fill="white"/>
<path d="M532.5 296.99V269.233C532.5 256.047 532.787 245.016 533.344 236.105C533.902 227.195 535.43 219.865 537.928 214.08C540.427 208.295 544.327 203.319 549.666 199.169C554.987 195.001 562.536 190.851 572.279 186.683L633.844 159.969C642.005 156.268 648.134 152.801 652.215 149.567C656.295 146.333 659.063 142.399 660.537 137.782C662.011 133.165 662.748 127.02 662.748 119.403C662.748 108.301 661.095 100.037 657.823 94.5932C654.534 89.1677 648.746 85.5746 640.477 83.832C632.19 82.0893 620.471 81.227 605.281 81.227C599.835 81.227 593.202 81.4606 585.383 81.9277C577.564 82.3948 569.457 82.9157 561.062 83.4906C552.668 84.0655 544.741 84.8201 537.263 85.7363V61.4473C543.842 60.2975 551.481 59.3094 560.217 58.501C568.935 57.6926 578.013 56.9919 587.432 56.417C596.833 55.8421 605.731 55.5547 614.125 55.5547C625 55.5547 635.102 56.1296 644.396 57.2793C653.689 58.4471 661.957 60.9802 669.219 64.9146C676.481 68.849 682.09 74.9212 686.062 83.1313C690.035 91.3414 692.012 102.39 692.012 116.259C692.012 130.128 690.592 141.177 687.752 149.387C684.912 157.597 680.382 164.191 674.145 169.167C667.907 174.143 659.693 178.832 649.483 183.216L579.415 213.397C573.519 215.948 569.259 218.841 566.671 222.075C564.064 225.308 562.41 229.53 561.745 234.74C561.08 239.95 560.721 246.597 560.721 254.681V270.994H691.994V297.008H532.5V296.99Z" fill="white"/>
<path d="M845.521 296.988V241.134H722.067V218.246L839.338 58.3193H871.639L754.71 215.461H845.863L851.992 130.468H874.785V215.461H909.477V241.134H874.785V296.988H845.539H845.521Z" fill="white"/>
<path d="M1033.67 294.403V55.7344H1185.69V81.4067H1062.91V160.849H1169.71V186.863H1062.91V268.73H1185.69V294.403H1033.67Z" fill="white"/>
<path d="M1221.24 294.403L1308.29 174.718L1222.59 55.7344H1257.28L1325.3 149.405H1328.01L1396.37 55.7344H1429.7L1343.99 173.676L1430.71 294.403H1396.36L1326.97 198.666H1324.26L1254.53 294.403H1221.2H1221.24Z" fill="white"/>
<path d="M317.479 35.4355L436.745 198.29L273.799 317.49L154.533 154.635L317.479 35.4355ZM321.038 0.133789C318.54 0.133789 316.005 0.90629 313.83 2.48723L124.209 141.197C118.762 145.185 117.576 152.838 121.566 158.282L260.354 347.797C262.744 351.067 266.465 352.81 270.24 352.81C272.739 352.81 275.273 352.037 277.448 350.456L467.069 211.746C472.516 207.758 473.702 200.105 469.712 194.661L330.925 5.1461C328.534 1.87642 324.813 0.133789 321.038 0.133789Z" fill="white"/>
<path d="M963.305 148.666L939.705 165.929L956.978 189.516L980.578 172.253L963.305 148.666Z" fill="white"/>
</g>
<defs>
<clipPath id="clip0_325_588">
<rect width="1431" height="353" fill="white"/>
</clipPath>
</defs>
</svg>
