<svg width="1431" height="353" viewBox="0 0 1431 353" fill="none" xmlns="http://www.w3.org/2000/svg">
<g clip-path="url(#clip0_325_596)">
<path d="M30.5575 297.11V120.655L0.700533 154.142L0.574707 111.385L39.0598 58.4414H59.8033V297.11H30.5575Z" fill="black"/>
<path d="M532.5 297.109V269.352C532.5 256.166 532.787 245.135 533.344 236.225C533.902 227.314 535.43 219.984 537.928 214.199C540.427 208.414 544.327 203.438 549.666 199.288C554.987 195.12 562.536 190.97 572.279 186.802L633.844 160.088C642.005 156.387 648.134 152.92 652.215 149.686C656.295 146.452 659.063 142.518 660.537 137.901C662.011 133.284 662.748 127.14 662.748 119.522C662.748 108.42 661.095 100.156 657.823 94.7123C654.534 89.2868 648.746 85.6937 640.477 83.9511C632.19 82.2085 620.471 81.3462 605.281 81.3462C599.835 81.3462 593.202 81.5797 585.383 82.0468C577.564 82.5139 569.457 83.0349 561.062 83.6098C552.668 84.1847 544.741 84.9392 537.263 85.8554V61.5664C543.842 60.4167 551.481 59.4286 560.217 58.6201C568.935 57.8117 578.013 57.111 587.432 56.5362C596.833 55.9613 605.731 55.6738 614.125 55.6738C625 55.6738 635.102 56.2487 644.396 57.3985C653.689 58.5662 661.957 61.0993 669.219 65.0337C676.481 68.9681 682.09 75.0403 686.062 83.2505C690.035 91.4606 692.012 102.509 692.012 116.378C692.012 130.248 690.592 141.296 687.752 149.506C684.912 157.716 680.382 164.31 674.145 169.286C667.907 174.262 659.693 178.951 649.483 183.335L579.415 213.516C573.519 216.068 569.259 218.96 566.671 222.194C564.064 225.427 562.41 229.649 561.745 234.859C561.08 240.069 560.721 246.716 560.721 254.801V271.113H691.994V297.127H532.5V297.109Z" fill="black"/>
<path d="M845.521 297.11V241.256H722.067V218.368L839.338 58.4414H871.639L754.71 215.583H845.863L851.992 130.59H874.785V215.583H909.477V241.256H874.785V297.11H845.539H845.521Z" fill="black"/>
<path d="M1033.67 294.521V55.8525H1185.69V81.5249H1062.91V160.967H1169.71V186.981H1062.91V268.849H1185.69V294.521H1033.67Z" fill="black"/>
<path d="M1221.24 294.521L1308.29 174.836L1222.59 55.8525H1257.28L1325.3 149.523H1328.01L1396.37 55.8525H1429.7L1343.99 173.794L1430.71 294.521H1396.36L1326.97 198.784H1324.26L1254.53 294.521H1221.2H1221.24Z" fill="black"/>
<path d="M317.479 35.5537L436.745 198.409L273.799 317.608L154.533 154.753L317.479 35.5537ZM321.038 0.251953C318.54 0.251953 316.005 1.02445 313.83 2.6054L124.209 141.315C118.762 145.303 117.576 152.957 121.566 158.4L260.354 347.915C262.744 351.185 266.465 352.928 270.24 352.928C272.739 352.928 275.273 352.155 277.448 350.574L467.069 211.865C472.516 207.876 473.702 200.223 469.712 194.78L330.925 5.26426C328.534 1.99458 324.813 0.251953 321.038 0.251953Z" fill="black"/>
<path d="M963.305 148.787L939.705 166.05L956.978 189.637L980.578 172.374L963.305 148.787Z" fill="black"/>
</g>
<defs>
<clipPath id="clip0_325_596">
<rect width="1431" height="353" fill="white"/>
</clipPath>
</defs>
</svg>
