<svg width="909" height="909" viewBox="0 0 909 909" fill="none" xmlns="http://www.w3.org/2000/svg">
<path d="M117.84 787.169V688.949L101.23 707.589L101.16 683.789L122.57 654.319H134.11V787.169H117.84Z" fill="black"/>
<path d="M310.17 787.169V771.719C310.17 764.379 310.33 758.239 310.64 753.279C310.95 748.319 311.8 744.239 313.19 741.019C314.58 737.799 316.75 735.029 319.72 732.719C322.68 730.399 326.88 728.089 332.3 725.769L366.55 710.899C371.09 708.839 374.5 706.909 376.77 705.109C379.04 703.309 380.58 701.119 381.4 698.549C382.22 695.979 382.63 692.559 382.63 688.319C382.63 682.139 381.71 677.539 379.89 674.509C378.06 671.489 374.84 669.489 370.24 668.519C365.63 667.549 359.11 667.069 350.66 667.069C347.63 667.069 343.94 667.199 339.59 667.459C335.24 667.719 330.73 668.009 326.06 668.329C321.39 668.649 316.98 669.069 312.82 669.579V656.059C316.48 655.419 320.73 654.869 325.59 654.419C330.44 653.969 335.49 653.579 340.73 653.259C345.96 652.939 350.91 652.779 355.58 652.779C361.63 652.779 367.25 653.099 372.42 653.739C377.59 654.389 382.19 655.799 386.23 657.989C390.27 660.179 393.39 663.559 395.6 668.129C397.81 672.699 398.91 678.849 398.91 686.569C398.91 694.289 398.12 700.439 396.54 705.009C394.96 709.579 392.44 713.249 388.97 716.019C385.5 718.789 380.93 721.399 375.25 723.839L336.27 740.639C332.99 742.059 330.62 743.669 329.18 745.469C327.73 747.269 326.81 749.619 326.44 752.519C326.07 755.419 325.87 759.119 325.87 763.619V772.699H398.9V787.179H310.17V787.169Z" fill="black"/>
<path d="M484.32 787.169V756.079H415.64V743.339L480.88 654.319H498.85L433.8 741.789H484.51L487.92 694.479H500.6V741.789H519.9V756.079H500.6V787.169H484.33H484.32Z" fill="black"/>
<path d="M588.99 787.169V654.319H673.56V668.609H605.26V712.829H664.67V727.309H605.26V772.879H673.56V787.169H588.99Z" fill="black"/>
<path d="M693.34 787.169L741.77 720.549L694.09 654.319H713.39L751.23 706.459H752.74L790.77 654.319H809.31L761.63 719.969L809.87 787.169H790.76L752.16 733.879H750.65L711.86 787.169H693.32H693.34Z" fill="black"/>
<path d="M234.09 670.479L275.92 727.63L218.77 769.46L176.94 712.31L234.09 670.479ZM236.1 652.77C235.15 652.77 234.18 653.059 233.35 653.669L161.13 706.53C159.05 708.05 158.6 710.969 160.12 713.039L212.98 785.26C213.89 786.51 215.31 787.169 216.74 787.169C217.69 787.169 218.66 786.88 219.49 786.27L291.71 733.409C293.79 731.889 294.24 728.97 292.72 726.9L239.86 654.68C238.95 653.43 237.53 652.77 236.1 652.77Z" fill="black"/>
<path d="M549.839 704.615L536.71 714.225L546.319 727.354L559.449 717.745L549.839 704.615Z" fill="black"/>
<path d="M478.449 124.821L228.348 307.867C221.16 313.128 219.597 323.221 224.858 330.41L407.905 580.511C413.166 587.7 423.259 589.262 430.448 584.001L680.549 400.954C687.738 395.693 689.3 385.6 684.039 378.412L500.992 128.31C495.731 121.122 485.638 119.559 478.449 124.821Z" fill="#00F5BC"/>
<path d="M354.91 427.26C390.57 475.98 411.47 530.98 418.44 586.92C414.36 586.28 410.53 584.1 407.9 580.51L224.86 330.42C222.23 326.82 221.3 322.5 221.94 318.42C273.15 341.98 319.25 378.54 354.91 427.26Z" fill="#00C294"/>
<path d="M500.99 128.319L684.03 378.409C686.66 381.999 687.58 386.319 686.96 390.399H686.95C635.74 366.839 589.64 330.289 553.98 281.569C518.32 232.849 497.42 177.849 490.44 121.899C494.52 122.529 498.36 124.719 500.99 128.309V128.319Z" fill="#00C294"/>
<path d="M686.95 390.409C686.32 394.489 684.13 398.329 680.54 400.959L430.45 583.999C426.85 586.629 422.53 587.559 418.45 586.919C442.01 535.709 478.57 489.599 527.29 453.939C576.01 418.279 631.01 397.379 686.94 390.399C686.94 390.399 686.94 390.409 686.95 390.399V390.409Z" fill="#00C294"/>
<path d="M490.43 121.9C466.87 173.11 430.31 219.22 381.6 254.88C332.88 290.54 277.89 311.44 221.94 318.42C222.57 314.34 224.76 310.5 228.35 307.87L478.44 124.83C482.04 122.2 486.35 121.27 490.43 121.9Z" fill="#00C294"/>
<path d="M379.651 265.472L356.212 416.878C355.302 422.751 359.326 428.249 365.199 429.158L516.605 452.597C522.478 453.506 527.976 449.482 528.885 443.61L552.324 292.203C553.233 286.33 549.209 280.833 543.336 279.924L391.93 256.485C386.057 255.576 380.56 259.599 379.651 265.472Z" fill="#BBFFE7"/>
</svg>
