<svg width="600" height="600" viewBox="0 0 600 600" fill="none" xmlns="http://www.w3.org/2000/svg">
<path d="M330.097 11.9669L16.3452 241.599C7.31801 248.206 5.35599 260.88 11.9629 269.907L241.595 583.659C248.202 592.686 260.876 594.648 269.903 588.041L583.655 358.409C592.682 351.802 594.644 339.128 588.037 330.101L358.405 16.3492C351.798 7.322 339.124 5.35999 330.097 11.9669Z" fill="white"/>
<path d="M330.097 11.9669L16.3452 241.599C7.31801 248.206 5.35599 260.88 11.9629 269.907L241.595 583.659C248.202 592.686 260.876 594.648 269.903 588.041L583.655 358.409C592.682 351.802 594.644 339.128 588.037 330.101L358.405 16.3492C351.798 7.322 339.124 5.35999 330.097 11.9669Z" fill="url(#paint0_linear_325_604)" fill-opacity="0.75"/>
<mask id="mask0_325_604" style="mask-type:alpha" maskUnits="userSpaceOnUse" x="8" y="8" width="584" height="584">
<path d="M334.448 9.53516C337.89 8.1369 341.592 7.74306 345.149 8.29199C353.897 78.4781 380.13 147.474 424.859 208.59C469.594 269.713 527.445 315.578 591.69 345.143C592.192 341.946 591.928 338.622 590.854 335.482C593.663 343.654 590.994 353.037 583.654 358.408L269.902 588.04C265.38 591.349 259.944 592.508 254.812 591.706C246.066 521.515 219.833 452.515 175.102 391.396C130.372 330.279 72.5283 284.417 8.29004 254.852C8.29038 254.849 8.28969 254.847 8.29004 254.845C78.4789 246.098 147.478 219.865 208.596 175.135C269.719 130.401 315.583 72.5496 345.148 8.30371C341.592 7.74547 337.892 8.13634 334.448 9.53516ZM591.661 345.143C521.496 353.887 452.491 380.12 391.368 424.854C330.245 469.589 284.381 527.441 254.816 591.687C259.932 592.49 265.345 591.329 269.866 588.027L583.631 358.378C588.152 355.076 590.888 350.258 591.691 345.143H591.661ZM590.692 335.028C590.741 335.161 590.788 335.294 590.834 335.427C590.786 335.287 590.736 335.148 590.685 335.009L590.692 335.028ZM356.733 14.3457C357.325 14.9688 357.884 15.6359 358.405 16.3477L565.349 299.1L358.383 16.3281C357.869 15.6239 357.317 14.9628 356.733 14.3457ZM16.334 241.612C15.686 242.086 15.0742 242.59 14.499 243.122C15.0772 242.585 15.6931 242.075 16.3457 241.598L225.675 88.3916L16.334 241.612Z" fill="#D9D9D9"/>
</mask>
<g mask="url(#mask0_325_604)">
<g filter="url(#filter0_f_325_604)">
<mask id="path-4-inside-1_325_604" fill="white">
<path d="M334.448 9.53516C337.89 8.1369 341.592 7.74306 345.149 8.29199C353.897 78.4781 380.13 147.474 424.859 208.59C469.594 269.713 527.445 315.578 591.69 345.143C592.192 341.946 591.928 338.622 590.854 335.482C593.663 343.654 590.994 353.037 583.654 358.408L269.902 588.04C265.38 591.349 259.944 592.508 254.812 591.706C246.066 521.515 219.833 452.515 175.102 391.396C130.372 330.279 72.5283 284.417 8.29004 254.852C8.29038 254.849 8.28969 254.847 8.29004 254.845C78.4789 246.098 147.478 219.865 208.596 175.135C269.719 130.401 315.583 72.5496 345.148 8.30371C341.592 7.74547 337.892 8.13634 334.448 9.53516ZM591.661 345.143C521.496 353.887 452.491 380.12 391.368 424.854C330.245 469.589 284.381 527.441 254.816 591.687C259.932 592.49 265.345 591.329 269.866 588.027L583.631 358.378C588.152 355.076 590.888 350.258 591.691 345.143H591.661ZM590.692 335.028C590.741 335.161 590.788 335.294 590.834 335.427C590.786 335.287 590.736 335.148 590.685 335.009L590.692 335.028ZM356.733 14.3457C357.325 14.9688 357.884 15.6359 358.405 16.3477L565.349 299.1L358.383 16.3281C357.869 15.6239 357.317 14.9628 356.733 14.3457ZM16.334 241.612C15.686 242.086 15.0742 242.59 14.499 243.122C15.0772 242.585 15.6931 242.075 16.3457 241.598L225.675 88.3916L16.334 241.612Z"/>
</mask>
<path d="M334.448 9.53516L333.055 6.10666L335.841 12.9638L334.448 9.53516ZM345.149 8.29199L348.822 7.8343L348.476 5.0609L345.714 4.63464L345.149 8.29199ZM424.859 208.59L421.873 210.775L424.859 208.59ZM591.69 345.143L590.143 348.504L594.588 350.55L595.346 345.716L591.69 345.143ZM590.854 335.482L594.353 334.279L587.352 336.68L590.854 335.482ZM583.654 358.408L581.469 355.422L583.654 358.408ZM269.902 588.04L272.088 591.026L272.088 591.026L269.902 588.04ZM254.812 591.706L251.14 592.164L251.485 594.932L254.241 595.362L254.812 591.706ZM175.102 391.396L178.088 389.21L175.102 391.396ZM8.29004 254.852L4.63273 254.287L4.20669 257.046L6.74284 258.213L8.29004 254.852ZM8.29004 254.845L7.83242 251.172L5.06015 251.518L4.63292 254.279L8.29004 254.845ZM208.596 175.135L210.781 178.121L208.596 175.135ZM345.148 8.30371L348.51 9.85075L350.555 5.40651L345.722 4.64783L345.148 8.30371ZM591.661 345.143V341.442H591.431L591.203 341.47L591.661 345.143ZM391.368 424.854L389.183 421.868L391.368 424.854ZM254.816 591.687L251.455 590.139L249.409 594.584L254.243 595.342L254.816 591.687ZM269.866 588.027L272.049 591.016L272.052 591.014L269.866 588.027ZM583.631 358.378L581.448 355.389L581.445 355.392L583.631 358.378ZM591.691 345.143L595.347 345.717L596.018 341.442H591.691V345.143ZM590.692 335.028L594.162 333.742L594.146 333.698L594.128 333.654L590.692 335.028ZM590.834 335.427L587.338 336.64L594.332 334.218L590.834 335.427ZM590.685 335.009L594.121 333.634L587.214 336.294L590.685 335.009ZM356.733 14.3457L359.417 11.7978L354.044 16.8878L356.733 14.3457ZM358.405 16.3477L361.392 14.162V14.162L358.405 16.3477ZM565.349 299.1L562.362 301.285L568.335 296.914L565.349 299.1ZM358.383 16.3281L355.394 18.5106L355.397 18.5138L358.383 16.3281ZM16.334 241.612L18.5164 244.601L18.5197 244.599L16.334 241.612ZM14.499 243.122L11.9797 240.411L17.0116 245.839L14.499 243.122ZM16.3457 241.598L18.5313 244.584H18.5313L16.3457 241.598ZM225.675 88.3916L227.86 91.3778L223.489 85.4053L225.675 88.3916ZM334.448 9.53516L335.841 12.9636C338.648 11.8234 341.673 11.4999 344.585 11.9493L345.149 8.29199L345.714 4.63464C341.512 3.98621 337.132 4.45042 333.055 6.10666L334.448 9.53516ZM345.149 8.29199L341.477 8.74968C350.301 79.5451 376.763 149.139 421.873 210.775L424.859 208.59L427.846 206.404C383.498 145.809 357.493 77.4112 348.822 7.8343L345.149 8.29199ZM424.859 208.59L421.873 210.775C466.989 272.419 525.34 318.683 590.143 348.504L591.69 345.143L593.237 341.781C529.549 312.472 472.198 267.006 427.846 206.404L424.859 208.59ZM591.69 345.143L595.346 345.716C595.939 341.938 595.628 338.005 594.355 334.284L590.854 335.482L587.352 336.68C588.228 339.24 588.445 341.955 588.035 344.569L591.69 345.143ZM590.854 335.482L587.354 336.685C589.651 343.368 587.463 351.035 581.469 355.422L583.654 358.408L585.84 361.394C594.525 355.038 597.674 343.941 594.353 334.279L590.854 335.482ZM583.654 358.408L581.469 355.422L267.717 585.054L269.902 588.04L272.088 591.026L585.84 361.394L583.654 358.408ZM269.902 588.04L267.717 585.054C264.021 587.759 259.584 588.706 255.384 588.05L254.812 591.706L254.241 595.362C260.303 596.31 266.74 594.94 272.088 591.026L269.902 588.04ZM254.812 591.706L258.485 591.248C249.663 520.449 223.201 450.85 178.088 389.21L175.102 391.396L172.115 393.581C216.466 454.18 242.47 522.582 251.14 592.164L254.812 591.706ZM175.102 391.396L178.088 389.21C132.977 327.572 74.6325 281.312 9.83724 251.49L8.29004 254.852L6.74284 258.213C70.424 287.522 127.767 332.985 172.115 393.581L175.102 391.396ZM8.29004 254.852L11.9473 255.416C11.9691 255.275 11.9802 255.149 11.9857 255.044C11.9885 254.991 11.9899 254.942 11.9905 254.898C11.991 254.854 11.9908 254.815 11.9901 254.78C11.9895 254.745 11.9884 254.715 11.9873 254.689C11.9862 254.663 11.985 254.641 11.9839 254.624C11.9829 254.608 11.982 254.594 11.9814 254.586C11.9811 254.582 11.9808 254.578 11.9807 254.576C11.9806 254.575 11.9805 254.574 11.9805 254.574C11.9805 254.573 11.9805 254.573 11.9804 254.573C11.9804 254.573 11.9804 254.573 11.9804 254.573C11.9804 254.573 11.9804 254.573 11.9804 254.573C11.9804 254.572 11.9805 254.574 11.9807 254.576C11.9808 254.578 11.981 254.581 11.9813 254.585C11.9819 254.593 11.9828 254.606 11.9838 254.623C11.9848 254.64 11.986 254.661 11.9871 254.687C11.9882 254.712 11.9893 254.743 11.9899 254.777C11.9906 254.812 11.9908 254.851 11.9903 254.894C11.9897 254.938 11.9883 254.987 11.9855 255.039C11.98 255.145 11.9689 255.27 11.9472 255.411L8.29004 254.845L4.63292 254.279C4.61107 254.42 4.59993 254.546 4.59438 254.652C4.5916 254.705 4.59018 254.754 4.58961 254.798C4.58903 254.841 4.58929 254.881 4.58994 254.916C4.59059 254.95 4.59165 254.981 4.59277 255.007C4.59388 255.033 4.5951 255.055 4.59613 255.072C4.59715 255.088 4.5981 255.102 4.59868 255.11C4.59898 255.115 4.59924 255.118 4.59939 255.12C4.59947 255.121 4.59954 255.122 4.59958 255.123C4.5996 255.123 4.59962 255.123 4.59963 255.123C4.59964 255.123 4.59965 255.123 4.59965 255.123C4.59967 255.124 4.59956 255.122 4.59943 255.121C4.59929 255.119 4.59905 255.115 4.59876 255.111C4.59819 255.103 4.59727 255.09 4.59627 255.074C4.59526 255.057 4.59405 255.035 4.59295 255.01C4.59185 254.984 4.5908 254.954 4.59015 254.92C4.5895 254.885 4.58923 254.846 4.58979 254.803C4.59036 254.759 4.59175 254.711 4.5945 254.658C4.59999 254.553 4.61103 254.427 4.63273 254.287L8.29004 254.852ZM8.29004 254.845L8.74766 258.517C79.5457 249.694 149.142 223.233 210.781 178.121L208.596 175.135L206.41 172.148C145.813 216.498 77.412 242.502 7.83242 251.172L8.29004 254.845ZM208.596 175.135L210.781 178.121C272.425 133.005 318.689 74.6538 348.51 9.85075L345.148 8.30371L341.787 6.75667C312.478 70.4455 267.012 127.796 206.41 172.148L208.596 175.135ZM345.148 8.30371L345.722 4.64783C341.517 3.98765 337.136 4.44931 333.056 6.10652L334.448 9.53516L335.841 12.9638C338.649 11.8234 341.668 11.5033 344.575 11.9596L345.148 8.30371ZM591.661 345.143L591.203 341.47C520.429 350.291 450.826 376.753 389.183 421.868L391.368 424.854L393.554 427.841C454.156 383.488 522.563 357.484 592.119 348.815L591.661 345.143ZM391.368 424.854L389.183 421.868C327.538 466.984 281.276 525.336 251.455 590.139L254.816 591.687L258.178 593.234C287.487 529.545 332.952 472.194 393.554 427.841L391.368 424.854ZM254.816 591.687L254.243 595.342C260.296 596.293 266.707 594.916 272.049 591.016L269.866 588.027L267.684 585.039C263.983 587.741 259.568 588.686 255.39 588.031L254.816 591.687ZM269.866 588.027L272.052 591.014L585.817 361.364L583.631 358.378L581.445 355.392L267.681 585.041L269.866 588.027ZM583.631 358.378L585.813 361.366C591.164 357.459 594.4 351.753 595.347 345.717L591.691 345.143L588.036 344.569C587.377 348.763 585.14 352.694 581.448 355.389L583.631 358.378ZM591.691 345.143V341.442H591.661V345.143V348.843H591.691V345.143ZM590.692 335.028L587.223 336.315C587.256 336.406 587.291 336.505 587.338 336.64L590.834 335.427L594.33 334.213C594.285 334.082 594.227 333.915 594.162 333.742L590.692 335.028ZM590.834 335.427L594.332 334.218C594.276 334.056 594.217 333.89 594.155 333.723L590.685 335.009L587.214 336.294C587.255 336.405 587.296 336.518 587.336 336.635L590.834 335.427ZM590.685 335.009L587.249 336.383L587.256 336.403L590.692 335.028L594.128 333.654L594.121 333.634L590.685 335.009ZM356.733 14.3457L354.05 16.8936C354.535 17.405 354.993 17.9513 355.419 18.5333L358.405 16.3477L361.392 14.162C360.776 13.3205 360.115 12.5327 359.417 11.7978L356.733 14.3457ZM358.405 16.3477L355.419 18.5333L562.362 301.285L565.349 299.1L568.335 296.914L361.392 14.162L358.405 16.3477ZM565.349 299.1L568.335 296.914L361.369 14.1424L358.383 16.3281L355.397 18.5138L562.362 301.285L565.349 299.1ZM358.383 16.3281L361.371 14.1457C360.764 13.3139 360.112 12.5328 359.423 11.8036L356.733 14.3457L354.044 16.8878C354.521 17.3927 354.973 17.9338 355.394 18.5106L358.383 16.3281ZM16.334 241.612L14.1515 238.624C13.3874 239.182 12.6655 239.777 11.9864 240.405L14.499 243.122L17.0116 245.839C17.483 245.403 17.9845 244.989 18.5164 244.601L16.334 241.612ZM14.499 243.122L17.0184 245.833C17.4908 245.394 17.9952 244.976 18.5313 244.584L16.3457 241.598L14.1601 238.611C13.3909 239.174 12.6636 239.776 11.9797 240.411L14.499 243.122ZM16.3457 241.598L18.5313 244.584L227.86 91.3779L225.675 88.3916L223.489 85.4053L14.1601 238.611L16.3457 241.598ZM225.675 88.3916L223.489 85.4054L14.1483 238.626L16.334 241.612L18.5197 244.599L227.86 91.3778L225.675 88.3916Z" fill="url(#paint1_linear_325_604)" mask="url(#path-4-inside-1_325_604)"/>
</g>
</g>
<path d="M175.1 391.396C219.835 452.519 246.068 521.524 254.813 591.719C249.697 590.916 244.879 588.179 241.577 583.658L11.9275 269.894C8.62597 265.373 7.46599 259.96 8.26906 254.844C72.515 284.409 130.366 330.273 175.1 391.396Z" fill="#00423C" fill-opacity="0.25"/>
<path d="M358.381 16.329L588.03 330.093C591.332 334.585 592.492 340.028 591.689 345.144C527.443 315.578 469.592 269.714 424.857 208.591C380.123 147.468 353.889 78.4632 345.145 8.26855C350.261 9.07163 355.079 11.808 358.381 16.329Z" fill="#00423C" fill-opacity="0.25"/>
<path d="M591.689 345.144C590.886 350.259 588.15 355.078 583.629 358.379L269.865 588.029C265.344 591.331 259.93 592.491 254.814 591.688C284.38 527.442 330.244 469.59 391.367 424.856C452.49 380.122 521.495 353.888 591.66 345.144H591.689Z" fill="#00423C" fill-opacity="0.25"/>
<path d="M345.143 8.2986C315.578 72.5446 269.714 130.396 208.591 175.13C147.468 219.864 78.463 246.098 8.26831 254.843C9.04164 249.727 11.8078 244.908 16.3288 241.607L330.093 11.9571C334.614 8.65553 340.027 7.49553 345.143 8.2986Z" fill="#00423C" fill-opacity="0.25"/>
<mask id="mask1_325_604" style="mask-type:alpha" maskUnits="userSpaceOnUse" x="8" y="8" width="584" height="584">
<path d="M175.102 391.396C219.836 452.519 246.07 521.524 254.814 591.719C249.699 590.916 244.88 588.179 241.579 583.658L11.929 269.894C8.62744 265.373 7.46745 259.96 8.27053 254.844C72.5165 284.409 130.368 330.273 175.102 391.396Z" fill="#00BCAC"/>
<path d="M358.382 16.3349L588.032 330.099C591.334 334.59 592.494 340.034 591.69 345.149C527.444 315.584 469.593 269.72 424.859 208.597C380.125 147.474 353.891 78.4691 345.146 8.27441C350.262 9.07749 355.081 11.8139 358.382 16.3349Z" fill="#00BCAC"/>
<path d="M591.689 345.144C590.886 350.259 588.15 355.078 583.629 358.379L269.865 588.029C265.344 591.331 259.93 592.491 254.814 591.688C284.38 527.442 330.244 469.59 391.367 424.856C452.49 380.122 521.495 353.888 591.66 345.144H591.689Z" fill="#00BCAC"/>
<path d="M345.145 8.2986C315.58 72.5446 269.715 130.396 208.592 175.13C147.469 219.864 78.4645 246.098 8.26978 254.843C9.04311 249.727 11.8093 244.908 16.3303 241.607L330.095 11.9571C334.616 8.65553 340.029 7.49553 345.145 8.2986Z" fill="#00BCAC"/>
</mask>
<g mask="url(#mask1_325_604)">
<g filter="url(#filter1_f_325_604)">
<path d="M9.88013 257.632C72.8946 287.101 129.619 332.384 173.609 392.489C217.596 452.592 243.614 520.344 252.642 589.331C248.928 588.219 245.536 585.941 243.073 582.567L243.072 582.565L13.4221 268.801C10.9555 265.422 9.80635 261.501 9.88013 257.632Z" stroke="url(#paint2_linear_325_604)" stroke-width="3.70065"/>
<path d="M347.318 10.6611C351.032 11.7727 354.424 14.0525 356.888 17.4258L356.89 17.4277L586.539 331.192L586.541 331.195C589.005 334.547 590.154 338.482 590.08 342.36C527.066 312.891 470.342 267.609 426.353 207.504C382.365 147.401 356.346 79.6489 347.318 10.6611Z" stroke="url(#paint3_linear_325_604)" stroke-width="3.70065"/>
<path d="M589.303 347.312C588.192 351.027 585.913 354.42 582.538 356.885L582.536 356.887L268.771 586.536C265.393 589.003 261.472 590.151 257.603 590.077C287.072 527.063 332.355 470.339 392.46 426.35C452.571 382.356 520.334 356.335 589.303 347.312Z" stroke="url(#paint4_linear_325_604)" stroke-width="3.70065"/>
<path d="M342.356 9.9082C312.886 72.9225 267.605 129.647 207.499 173.637C147.393 217.627 79.6365 243.646 10.6448 252.672C11.745 248.964 14.0414 245.569 17.4211 243.101L17.4231 243.1L331.187 13.4492C334.565 10.9827 338.487 9.83464 342.356 9.9082Z" stroke="url(#paint5_linear_325_604)" stroke-width="3.70065"/>
</g>
</g>
<mask id="mask2_325_604" style="mask-type:alpha" maskUnits="userSpaceOnUse" x="176" y="176" width="247" height="248">
<path opacity="0.5" d="M206.141 188.416L176.737 378.356C175.596 385.726 180.646 392.625 188.016 393.766L377.956 423.17C385.326 424.311 392.225 419.262 393.366 411.892L422.77 221.952C423.911 214.581 418.862 207.682 411.492 206.541L221.552 177.137C214.182 175.996 207.282 181.046 206.141 188.416Z" fill="url(#paint6_linear_325_604)"/>
</mask>
<g mask="url(#mask2_325_604)">
<g filter="url(#filter2_f_325_604)">
<path d="M178.566 378.638L207.97 188.699C208.955 182.339 214.909 177.981 221.269 178.965L411.209 208.37C417.569 209.354 421.927 215.308 420.942 221.669L391.538 411.608C390.553 417.968 384.599 422.326 378.239 421.342L188.299 391.937C181.939 390.953 177.581 384.999 178.566 378.638Z" stroke="white" stroke-width="3.70065"/>
</g>
</g>
<g filter="url(#filter3_d_325_604)">
<path d="M206.14 188.415L176.736 378.355C175.595 385.725 180.644 392.624 188.014 393.765L377.954 423.169C385.324 424.31 392.224 419.261 393.365 411.891L422.769 221.951C423.91 214.581 418.86 207.681 411.49 206.54L221.55 177.136C214.18 175.995 207.281 181.045 206.14 188.415Z" fill="url(#paint7_linear_325_604)"/>
</g>
<defs>
<filter id="filter0_f_325_604" x="-6.51256" y="-6.74889" width="613.263" height="613.502" filterUnits="userSpaceOnUse" color-interpolation-filters="sRGB">
<feFlood flood-opacity="0" result="BackgroundImageFix"/>
<feBlend mode="normal" in="SourceGraphic" in2="BackgroundImageFix" result="shape"/>
<feGaussianBlur stdDeviation="7.4013" result="effect1_foregroundBlur_325_604"/>
</filter>
<filter id="filter1_f_325_604" x="-10.4776" y="-10.4495" width="620.916" height="620.885" filterUnits="userSpaceOnUse" color-interpolation-filters="sRGB">
<feFlood flood-opacity="0" result="BackgroundImageFix"/>
<feBlend mode="normal" in="SourceGraphic" in2="BackgroundImageFix" result="shape"/>
<feGaussianBlur stdDeviation="9.25163" result="effect1_foregroundBlur_325_604"/>
</filter>
<filter id="filter2_f_325_604" x="169.175" y="169.574" width="261.158" height="261.158" filterUnits="userSpaceOnUse" color-interpolation-filters="sRGB">
<feFlood flood-opacity="0" result="BackgroundImageFix"/>
<feBlend mode="normal" in="SourceGraphic" in2="BackgroundImageFix" result="shape"/>
<feGaussianBlur stdDeviation="3.70065" result="effect1_foregroundBlur_325_604"/>
</filter>
<filter id="filter3_d_325_604" x="156.575" y="156.975" width="286.355" height="286.355" filterUnits="userSpaceOnUse" color-interpolation-filters="sRGB">
<feFlood flood-opacity="0" result="BackgroundImageFix"/>
<feColorMatrix in="SourceAlpha" type="matrix" values="0 0 0 0 0 0 0 0 0 0 0 0 0 0 0 0 0 0 127 0" result="hardAlpha"/>
<feOffset/>
<feGaussianBlur stdDeviation="10"/>
<feComposite in2="hardAlpha" operator="out"/>
<feColorMatrix type="matrix" values="0 0 0 0 1 0 0 0 0 1 0 0 0 0 1 0 0 0 0.5 0"/>
<feBlend mode="screen" in2="BackgroundImageFix" result="effect1_dropShadow_325_604"/>
<feBlend mode="normal" in="SourceGraphic" in2="effect1_dropShadow_325_604" result="shape"/>
</filter>
<linearGradient id="paint0_linear_325_604" x1="180.512" y1="135.854" x2="443.337" y2="600.004" gradientUnits="userSpaceOnUse">
<stop stop-color="#00FBC0"/>
<stop offset="1" stop-color="#00C193"/>
</linearGradient>
<linearGradient id="paint1_linear_325_604" x1="206.142" y1="-24.5493" x2="405.937" y2="437.922" gradientUnits="userSpaceOnUse">
<stop stop-color="#00FBC0" stop-opacity="0"/>
<stop offset="1" stop-color="#00FBC0"/>
</linearGradient>
<linearGradient id="paint2_linear_325_604" x1="131.42" y1="254.844" x2="131.42" y2="591.719" gradientUnits="userSpaceOnUse">
<stop stop-color="#00FBC0" stop-opacity="0"/>
<stop offset="1" stop-color="#00FBC0"/>
</linearGradient>
<linearGradient id="paint3_linear_325_604" x1="468.541" y1="8.27441" x2="468.541" y2="345.149" gradientUnits="userSpaceOnUse">
<stop stop-color="#00FBC0" stop-opacity="0"/>
<stop offset="1" stop-color="#00FBC0"/>
</linearGradient>
<linearGradient id="paint4_linear_325_604" x1="423.252" y1="345.144" x2="423.252" y2="591.932" gradientUnits="userSpaceOnUse">
<stop stop-color="#00FBC0" stop-opacity="0"/>
<stop offset="1" stop-color="#00FBC0"/>
</linearGradient>
<linearGradient id="paint5_linear_325_604" x1="176.707" y1="8.05371" x2="176.707" y2="254.843" gradientUnits="userSpaceOnUse">
<stop stop-color="#00FBC0" stop-opacity="0"/>
<stop offset="1" stop-color="#00FBC0"/>
</linearGradient>
<linearGradient id="paint6_linear_325_604" x1="227.043" y1="175.071" x2="530.802" y2="728.782" gradientUnits="userSpaceOnUse">
<stop stop-color="#B3FFF4"/>
<stop offset="1" stop-color="#00F6E2"/>
</linearGradient>
<linearGradient id="paint7_linear_325_604" x1="227.042" y1="175.07" x2="530.8" y2="728.781" gradientUnits="userSpaceOnUse">
<stop stop-color="#BBFFE4"/>
<stop offset="1" stop-color="#00FBC0"/>
</linearGradient>
</defs>
</svg>
