<svg width="600" height="600" viewBox="0 0 600 600" fill="none" xmlns="http://www.w3.org/2000/svg">
<path d="M330.097 11.9659L16.3452 241.598C7.31801 248.205 5.35599 260.879 11.9629 269.906L241.595 583.658C248.202 592.685 260.876 594.647 269.903 588.04L583.655 358.408C592.682 351.801 594.644 339.127 588.037 330.1L358.405 16.3483C351.798 7.32102 339.124 5.35902 330.097 11.9659Z" fill="url(#paint0_linear_325_641)"/>
<g style="mix-blend-mode:screen">
<g filter="url(#filter0_d_325_641)">
<path d="M206.141 188.42L176.737 378.36C175.596 385.73 180.646 392.63 188.016 393.771L377.956 423.175C385.326 424.316 392.225 419.266 393.366 411.896L422.77 221.956C423.911 214.586 418.862 207.687 411.492 206.546L221.552 177.142C214.182 176.001 207.282 181.05 206.141 188.42Z" fill="url(#paint1_linear_325_641)"/>
</g>
<path d="M330.097 11.9728L16.3452 241.604C7.31801 248.211 5.35599 260.885 11.9629 269.913L241.595 583.665C248.202 592.692 260.876 594.654 269.903 588.047L583.655 358.415C592.682 351.808 594.644 339.134 588.037 330.107L358.405 16.3551C351.798 7.32786 339.124 5.36585 330.097 11.9728Z" fill="url(#paint2_linear_325_641)" fill-opacity="0.75"/>
<mask id="mask0_325_641" style="mask-type:alpha" maskUnits="userSpaceOnUse" x="8" y="8" width="584" height="584">
<path d="M342.98 8.0918C343.707 8.12524 344.431 8.1949 345.149 8.30566C353.897 78.4919 380.13 147.488 424.859 208.604C469.594 269.726 527.444 315.591 591.69 345.156C592.268 341.479 591.831 337.633 590.313 334.093L590.322 334.111C593.954 342.585 591.414 352.744 583.656 358.422L269.904 588.054C265.382 591.363 259.945 592.523 254.813 591.721C246.068 521.53 219.834 452.529 175.103 391.409C130.373 330.292 72.5292 284.431 8.29102 254.865C8.29167 254.861 8.29231 254.857 8.29297 254.853C78.4802 246.105 147.477 219.872 208.594 175.143C269.717 130.408 315.581 72.5574 345.146 8.31152C344.429 8.19894 343.706 8.12673 342.98 8.0918ZM591.661 345.156C521.496 353.901 452.491 380.135 391.368 424.869C330.245 469.603 284.381 527.454 254.816 591.7C259.932 592.503 265.345 591.343 269.866 588.042L583.631 358.392C588.152 355.09 590.888 350.272 591.691 345.156H591.661ZM356.396 14.0107C357.115 14.7316 357.788 15.516 358.407 16.3623L588.039 330.113C588.132 330.24 588.222 330.368 588.312 330.496C588.22 330.365 588.127 330.235 588.032 330.105L358.383 16.3418C357.867 15.6354 357.314 14.9722 356.729 14.3535L356.396 14.0107ZM356.023 13.6455C356.098 13.7167 356.171 13.7898 356.245 13.8623C356.171 13.7896 356.098 13.7169 356.023 13.6455Z" fill="#D9D9D9"/>
</mask>
<g mask="url(#mask0_325_641)">
<g filter="url(#filter1_f_325_641)">
<mask id="path-5-inside-1_325_641" fill="white">
<path d="M342.98 8.0918C343.707 8.12524 344.431 8.1949 345.149 8.30566C353.897 78.4919 380.13 147.488 424.859 208.604C469.594 269.726 527.444 315.591 591.69 345.156C592.268 341.479 591.831 337.633 590.313 334.093L590.322 334.111C593.954 342.585 591.414 352.744 583.656 358.422L269.904 588.054C265.382 591.363 259.945 592.523 254.813 591.721C246.068 521.53 219.834 452.529 175.103 391.409C130.373 330.292 72.5292 284.431 8.29102 254.865C8.29167 254.861 8.29231 254.857 8.29297 254.853C78.4802 246.105 147.477 219.872 208.594 175.143C269.717 130.408 315.581 72.5574 345.146 8.31152C344.429 8.19894 343.706 8.12673 342.98 8.0918ZM591.661 345.156C521.496 353.901 452.491 380.135 391.368 424.869C330.245 469.603 284.381 527.454 254.816 591.7C259.932 592.503 265.345 591.343 269.866 588.042L583.631 358.392C588.152 355.09 590.888 350.272 591.691 345.156H591.661ZM356.396 14.0107C357.115 14.7316 357.788 15.516 358.407 16.3623L588.039 330.113C588.132 330.24 588.222 330.368 588.312 330.496C588.22 330.365 588.127 330.235 588.032 330.105L358.383 16.3418C357.867 15.6354 357.314 14.9722 356.729 14.3535L356.396 14.0107ZM356.023 13.6455C356.098 13.7167 356.171 13.7898 356.245 13.8623C356.171 13.7896 356.098 13.7169 356.023 13.6455Z"/>
</mask>
<path d="M342.98 8.0918L343.151 4.39506L342.803 11.7882L342.98 8.0918ZM345.149 8.30566L348.822 7.84798L348.476 5.07434L345.714 4.64826L345.149 8.30566ZM424.859 208.604L421.873 210.789L424.859 208.604ZM591.69 345.156L590.143 348.518L594.588 350.563L595.346 345.73L591.69 345.156ZM590.313 334.093L593.658 332.509L586.912 335.551L590.313 334.093ZM590.322 334.111L593.724 332.653L593.696 332.59L593.667 332.527L590.322 334.111ZM583.656 358.422L581.471 355.436L583.656 358.422ZM269.904 588.054L272.09 591.04H272.09L269.904 588.054ZM254.813 591.721L251.141 592.178L251.486 594.946L254.242 595.377L254.813 591.721ZM175.103 391.409L178.089 389.224L175.103 391.409ZM8.29102 254.865L4.63371 254.3L4.20765 257.06L6.74381 258.227L8.29102 254.865ZM8.29297 254.853L7.83531 251.18L5.06396 251.526L4.63602 254.285L8.29297 254.853ZM208.594 175.143L210.779 178.129L208.594 175.143ZM345.146 8.31152L348.508 9.85856L350.553 5.41432L345.72 4.65564L345.146 8.31152ZM591.661 345.156V341.456H591.431L591.203 341.484L591.661 345.156ZM391.368 424.869L389.183 421.883L391.368 424.869ZM254.816 591.7L251.455 590.153L249.409 594.597L254.243 595.356L254.816 591.7ZM269.866 588.042L272.049 591.031L272.052 591.028L269.866 588.042ZM583.631 358.392L581.448 355.403L581.445 355.405L583.631 358.392ZM591.691 345.156L595.347 345.73L596.018 341.456H591.691V345.156ZM356.396 14.0107L359.018 11.3991L353.738 16.5855L356.396 14.0107ZM358.407 16.3623L355.421 18.5479V18.5479L358.407 16.3623ZM588.039 330.113L591.025 327.928L588.039 330.113ZM588.312 330.496L585.279 332.617L591.347 328.379L588.312 330.496ZM588.032 330.105L585.046 332.291L585.051 332.297L588.032 330.105ZM358.383 16.3418L355.394 18.5243L355.397 18.5275L358.383 16.3418ZM356.729 14.3535L359.417 11.8104L359.402 11.7945L359.387 11.7787L356.729 14.3535ZM356.023 13.6455L358.577 10.967L353.464 16.3188L356.023 13.6455ZM356.245 13.8623L353.651 16.5013L358.845 11.2288L356.245 13.8623ZM342.98 8.0918L342.81 11.7885C343.414 11.8163 344.007 11.8738 344.585 11.9631L345.149 8.30566L345.714 4.64826C344.856 4.51602 344 4.43416 343.151 4.39506L342.98 8.0918ZM345.149 8.30566L341.477 8.76335C350.301 79.5589 376.763 149.152 421.873 210.789L424.859 208.604L427.846 206.418C383.498 145.823 357.493 77.425 348.822 7.84798L345.149 8.30566ZM424.859 208.604L421.873 210.789C466.989 272.433 525.34 318.697 590.143 348.518L591.69 345.156L593.237 341.794C529.549 312.486 472.198 267.02 427.846 206.418L424.859 208.604ZM591.69 345.156L595.346 345.73C596.029 341.383 595.514 336.832 593.715 332.635L590.313 334.093L586.912 335.551C588.148 338.434 588.507 341.575 588.035 344.582L591.69 345.156ZM590.313 334.093L586.969 335.677L586.978 335.696L590.322 334.111L593.667 332.527L593.658 332.509L590.313 334.093ZM590.322 334.111L586.921 335.569C589.889 342.495 587.807 350.798 581.471 355.436L583.656 358.422L585.842 361.408C595.021 354.69 598.02 342.676 593.724 332.653L590.322 334.111ZM583.656 358.422L581.471 355.436L267.719 585.067L269.904 588.054L272.09 591.04L585.842 361.408L583.656 358.422ZM269.904 588.054L267.719 585.067C264.022 587.773 259.584 588.721 255.385 588.064L254.813 591.721L254.242 595.377C260.305 596.325 266.742 594.954 272.09 591.04L269.904 588.054ZM254.813 591.721L258.486 591.263C249.664 520.463 223.202 450.864 178.089 389.224L175.103 391.409L172.116 393.595C216.467 454.194 242.471 522.597 251.141 592.178L254.813 591.721ZM175.103 391.409L178.089 389.224C132.978 327.586 74.6335 281.325 9.83822 251.504L8.29102 254.865L6.74381 258.227C70.4249 287.536 127.768 332.999 172.116 393.595L175.103 391.409ZM8.29102 254.865L11.9483 255.43C11.949 255.426 11.9497 255.421 11.9499 255.42C11.9502 255.418 11.9501 255.418 11.9499 255.42L8.29297 254.853L4.63602 254.285C4.63519 254.291 4.63446 254.296 4.63413 254.298C4.63366 254.301 4.63369 254.301 4.63371 254.3L8.29102 254.865ZM8.29297 254.853L8.75063 258.525C79.5471 249.702 149.142 223.24 210.779 178.129L208.594 175.143L206.408 172.156C145.812 216.505 77.4132 242.509 7.83531 251.18L8.29297 254.853ZM208.594 175.143L210.779 178.129C272.423 133.013 318.687 74.6616 348.508 9.85856L345.146 8.31152L341.785 6.76449C312.476 70.4532 267.01 127.804 206.408 172.156L208.594 175.143ZM345.146 8.31152L345.72 4.65564C344.866 4.52156 344.011 4.43645 343.158 4.39543L342.98 8.0918L342.803 11.7882C343.402 11.817 343.992 11.8763 344.573 11.9674L345.146 8.31152ZM591.661 345.156L591.203 341.484C520.429 350.305 450.826 376.767 389.183 421.883L391.368 424.869L393.554 427.855C454.156 383.502 522.563 357.497 592.119 348.828L591.661 345.156ZM391.368 424.869L389.183 421.883C327.539 466.998 281.276 525.35 251.455 590.153L254.816 591.7L258.178 593.247C287.487 529.559 332.952 472.208 393.554 427.855L391.368 424.869ZM254.816 591.7L254.243 595.356C260.296 596.306 266.707 594.931 272.049 591.031L269.866 588.042L267.684 585.053C263.984 587.755 259.568 588.7 255.39 588.044L254.816 591.7ZM269.866 588.042L272.052 591.028L585.817 361.378L583.631 358.392L581.445 355.405L267.681 585.056L269.866 588.042ZM583.631 358.392L585.813 361.38C591.163 357.473 594.4 351.767 595.347 345.73L591.691 345.156L588.036 344.582C587.377 348.777 585.14 352.707 581.448 355.403L583.631 358.392ZM591.691 345.156V341.456H591.661V345.156V348.857H591.691V345.156ZM356.396 14.0107L353.775 16.6224C354.362 17.2116 354.913 17.8538 355.421 18.5479L358.407 16.3623L361.393 14.1767C360.663 13.1782 359.867 12.2516 359.018 11.3991L356.396 14.0107ZM358.407 16.3623L355.421 18.5479L585.053 332.299L588.039 330.113L591.025 327.928L361.393 14.1767L358.407 16.3623ZM588.039 330.113L585.053 332.299C585.122 332.393 585.194 332.495 585.276 332.613L588.312 330.496L591.347 328.379C591.25 328.241 591.142 328.087 591.025 327.928L588.039 330.113ZM588.312 330.496L591.344 328.375C591.242 328.23 591.132 328.074 591.014 327.914L588.032 330.105L585.051 332.297C585.123 332.396 585.198 332.501 585.279 332.617L588.312 330.496ZM588.032 330.105L591.018 327.92L361.369 14.1561L358.383 16.3418L355.397 18.5275L585.046 332.291L588.032 330.105ZM358.383 16.3418L361.371 14.1593C360.763 13.3262 360.109 12.5426 359.417 11.8104L356.729 14.3535L354.04 16.8967C354.518 17.4019 354.971 17.9446 355.394 18.5243L358.383 16.3418ZM356.729 14.3535L359.387 11.7787L359.055 11.436L356.396 14.0107L353.738 16.5855L354.07 16.9283L356.729 14.3535ZM356.023 13.6455L353.47 16.324C353.517 16.3691 353.55 16.4027 353.651 16.5013L356.245 13.8623L358.839 11.2233C358.792 11.1768 358.679 11.0644 358.577 10.967L356.023 13.6455ZM356.245 13.8623L358.845 11.2288C358.778 11.1628 358.682 11.0676 358.582 10.9723L356.023 13.6455L353.464 16.3188C353.514 16.3662 353.565 16.4164 353.645 16.4958L356.245 13.8623Z" fill="url(#paint3_linear_325_641)" mask="url(#path-5-inside-1_325_641)"/>
</g>
</g>
<path d="M175.101 391.416C219.835 452.539 246.069 521.544 254.814 591.738C249.698 590.935 244.879 588.199 241.578 583.678L11.9282 269.913C8.6267 265.392 7.46672 259.979 8.2698 254.863C72.5158 284.428 130.367 330.293 175.101 391.416Z" fill="#074323" fill-opacity="0.75"/>
<path d="M358.382 16.3486L588.032 330.113C591.334 334.604 592.494 340.047 591.69 345.163C527.444 315.598 469.593 269.734 424.859 208.611C380.125 147.488 353.891 78.4828 345.146 8.28809C350.262 9.09116 355.081 11.8276 358.382 16.3486Z" fill="#074323" fill-opacity="0.75"/>
<path d="M591.688 345.156C590.885 350.272 588.148 355.091 583.627 358.392L269.863 588.042C265.342 591.343 259.929 592.503 254.813 591.7C284.378 527.454 330.242 469.603 391.365 424.869C452.488 380.135 521.493 353.901 591.658 345.156H591.688Z" fill="#074323" fill-opacity="0.75"/>
<path d="M345.145 8.3113C315.58 72.5573 269.715 130.408 208.592 175.143C147.469 219.877 78.4645 246.111 8.26978 254.855C9.04311 249.739 11.8093 244.921 16.3303 241.619L330.095 11.9698C334.616 8.66823 340.029 7.50822 345.145 8.3113Z" fill="#074323" fill-opacity="0.75"/>
<mask id="mask1_325_641" style="mask-type:alpha" maskUnits="userSpaceOnUse" x="8" y="8" width="584" height="584">
<path d="M175.1 391.416C219.835 452.539 246.068 521.544 254.813 591.738C249.697 590.935 244.879 588.199 241.577 583.678L11.9275 269.913C8.62597 265.392 7.46599 259.979 8.26906 254.863C72.5151 284.428 130.366 330.293 175.1 391.416Z" fill="#00BCAC"/>
<path d="M358.379 16.3486L588.029 330.113C591.33 334.604 592.49 340.047 591.687 345.163C527.441 315.598 469.59 269.734 424.856 208.611C380.122 147.488 353.888 78.4828 345.143 8.28809C350.259 9.09116 355.078 11.8276 358.379 16.3486Z" fill="#00BCAC"/>
<path d="M591.688 345.156C590.885 350.272 588.148 355.091 583.627 358.392L269.863 588.042C265.342 591.343 259.929 592.503 254.813 591.7C284.378 527.454 330.243 469.603 391.365 424.869C452.488 380.135 521.493 353.901 591.658 345.156H591.688Z" fill="#00BCAC"/>
<path d="M345.145 8.3113C315.58 72.5573 269.716 130.408 208.593 175.143C147.47 219.877 78.4647 246.111 8.27002 254.855C9.04335 249.739 11.8095 244.921 16.3305 241.619L330.095 11.9698C334.616 8.66823 340.029 7.50822 345.145 8.3113Z" fill="#00BCAC"/>
</mask>
<g mask="url(#mask1_325_641)">
<g filter="url(#filter2_f_325_641)">
<path d="M9.87866 257.651C72.8931 287.121 129.618 332.403 173.607 392.509C217.595 452.611 243.613 520.363 252.64 589.351C248.927 588.239 245.534 585.96 243.071 582.587L243.07 582.585L13.4207 268.82C10.954 265.442 9.80488 261.521 9.87866 257.651Z" stroke="url(#paint4_linear_325_641)" stroke-width="3.70065"/>
<path d="M347.315 10.6748C351.029 11.7864 354.421 14.0661 356.885 17.4395L356.886 17.4414L586.536 331.206L586.538 331.209C589.001 334.56 590.151 338.496 590.077 342.374C527.063 312.905 470.339 267.623 426.349 207.518C382.362 147.415 356.342 79.6625 347.315 10.6748Z" stroke="url(#paint5_linear_325_641)" stroke-width="3.70065"/>
<path d="M589.301 347.324C588.19 351.039 585.911 354.433 582.537 356.897L582.535 356.899L268.77 586.549C265.391 589.015 261.47 590.164 257.601 590.09C287.07 527.076 332.353 470.352 392.458 426.362C452.57 382.368 520.332 356.348 589.301 347.324Z" stroke="url(#paint6_linear_325_641)" stroke-width="3.70065"/>
<path d="M342.356 9.9209C312.887 72.9352 267.605 129.66 207.5 173.649C147.393 217.64 79.6367 243.659 10.645 252.685C11.7453 248.977 14.0416 245.581 17.4214 243.113L17.4233 243.112L331.187 13.4619C334.565 10.9954 338.487 9.84734 342.356 9.9209Z" stroke="url(#paint7_linear_325_641)" stroke-width="3.70065"/>
</g>
</g>
<mask id="mask2_325_641" style="mask-type:alpha" maskUnits="userSpaceOnUse" x="176" y="176" width="247" height="248">
<path opacity="0.5" d="M206.141 188.42L176.737 378.36C175.596 385.73 180.646 392.63 188.016 393.771L377.956 423.175C385.326 424.316 392.225 419.266 393.366 411.896L422.77 221.956C423.911 214.586 418.862 207.687 411.492 206.546L221.552 177.142C214.182 176.001 207.282 181.05 206.141 188.42Z" fill="url(#paint8_linear_325_641)"/>
</mask>
<g mask="url(#mask2_325_641)">
<g filter="url(#filter3_f_325_641)">
<path d="M178.566 378.643L207.97 188.704C208.955 182.343 214.909 177.986 221.269 178.97L411.209 208.374C417.569 209.359 421.927 215.313 420.942 221.673L391.538 411.613C390.553 417.973 384.599 422.331 378.239 421.346L188.299 391.942C181.939 390.958 177.581 385.003 178.566 378.643Z" stroke="white" stroke-width="3.70065"/>
</g>
</g>
</g>
<defs>
<filter id="filter0_d_325_641" x="146.971" y="147.375" width="305.566" height="305.566" filterUnits="userSpaceOnUse" color-interpolation-filters="sRGB">
<feFlood flood-opacity="0" result="BackgroundImageFix"/>
<feColorMatrix in="SourceAlpha" type="matrix" values="0 0 0 0 0 0 0 0 0 0 0 0 0 0 0 0 0 0 127 0" result="hardAlpha"/>
<feOffset/>
<feGaussianBlur stdDeviation="14.8026"/>
<feComposite in2="hardAlpha" operator="out"/>
<feColorMatrix type="matrix" values="0 0 0 0 1 0 0 0 0 1 0 0 0 0 1 0 0 0 1 0"/>
<feBlend mode="normal" in2="BackgroundImageFix" result="effect1_dropShadow_325_641"/>
<feBlend mode="normal" in="SourceGraphic" in2="effect1_dropShadow_325_641" result="shape"/>
</filter>
<filter id="filter1_f_325_641" x="-6.51159" y="-6.7108" width="613.265" height="613.478" filterUnits="userSpaceOnUse" color-interpolation-filters="sRGB">
<feFlood flood-opacity="0" result="BackgroundImageFix"/>
<feBlend mode="normal" in="SourceGraphic" in2="BackgroundImageFix" result="shape"/>
<feGaussianBlur stdDeviation="7.4013" result="effect1_foregroundBlur_325_641"/>
</filter>
<filter id="filter2_f_325_641" x="-10.4791" y="-10.4368" width="620.914" height="620.885" filterUnits="userSpaceOnUse" color-interpolation-filters="sRGB">
<feFlood flood-opacity="0" result="BackgroundImageFix"/>
<feBlend mode="normal" in="SourceGraphic" in2="BackgroundImageFix" result="shape"/>
<feGaussianBlur stdDeviation="9.25163" result="effect1_foregroundBlur_325_641"/>
</filter>
<filter id="filter3_f_325_641" x="169.175" y="169.579" width="261.158" height="261.158" filterUnits="userSpaceOnUse" color-interpolation-filters="sRGB">
<feFlood flood-opacity="0" result="BackgroundImageFix"/>
<feBlend mode="normal" in="SourceGraphic" in2="BackgroundImageFix" result="shape"/>
<feGaussianBlur stdDeviation="3.70065" result="effect1_foregroundBlur_325_641"/>
</filter>
<linearGradient id="paint0_linear_325_641" x1="-83.2036" y1="221.614" x2="679.658" y2="419.852" gradientUnits="userSpaceOnUse">
<stop stop-color="#00412F"/>
<stop offset="1" stop-color="#00261B"/>
</linearGradient>
<linearGradient id="paint1_linear_325_641" x1="227.043" y1="175.076" x2="530.802" y2="728.787" gradientUnits="userSpaceOnUse">
<stop stop-color="#C4FED6"/>
<stop offset="1" stop-color="#32F08C"/>
</linearGradient>
<linearGradient id="paint2_linear_325_641" x1="180.512" y1="135.859" x2="443.337" y2="600.01" gradientUnits="userSpaceOnUse">
<stop stop-color="#00FBC0"/>
<stop offset="1" stop-color="#00C294"/>
</linearGradient>
<linearGradient id="paint3_linear_325_641" x1="206.144" y1="-24.5099" x2="405.925" y2="437.95" gradientUnits="userSpaceOnUse">
<stop stop-color="#00FBC0" stop-opacity="0"/>
<stop offset="1" stop-color="#00FBC0"/>
</linearGradient>
<linearGradient id="paint4_linear_325_641" x1="131.419" y1="254.863" x2="131.419" y2="591.738" gradientUnits="userSpaceOnUse">
<stop stop-color="#00FBC0" stop-opacity="0"/>
<stop offset="1" stop-color="#00FBC0"/>
</linearGradient>
<linearGradient id="paint5_linear_325_641" x1="468.538" y1="8.28809" x2="468.538" y2="345.163" gradientUnits="userSpaceOnUse">
<stop stop-color="#00FBC0" stop-opacity="0"/>
<stop offset="1" stop-color="#00FBC0"/>
</linearGradient>
<linearGradient id="paint6_linear_325_641" x1="423.251" y1="345.156" x2="423.251" y2="591.945" gradientUnits="userSpaceOnUse">
<stop stop-color="#00FBC0" stop-opacity="0"/>
<stop offset="1" stop-color="#00FBC0"/>
</linearGradient>
<linearGradient id="paint7_linear_325_641" x1="176.708" y1="8.06641" x2="176.708" y2="254.855" gradientUnits="userSpaceOnUse">
<stop stop-color="#00FBC0" stop-opacity="0"/>
<stop offset="1" stop-color="#00FBC0"/>
</linearGradient>
<linearGradient id="paint8_linear_325_641" x1="227.043" y1="175.076" x2="530.802" y2="728.787" gradientUnits="userSpaceOnUse">
<stop stop-color="#B3FFF4"/>
<stop offset="1" stop-color="#00F6E2"/>
</linearGradient>
</defs>
</svg>
